<svg class="w-6 h-6" viewBox="0 0 24 24" fill="black" xmlns="http://www.w3.org/2000/svg">
<path d="M11.8828 0.78282C9.45 1.00313 7.21875 1.93126 5.41406 3.47813C3.57187 5.05782 2.28281 7.21407 1.77187 9.57188C1.71094 9.85313 1.65469 10.0781 1.64062 10.0781C1.62656 10.0734 1.54219 9.96563 1.45312 9.83438C1.21406 9.48282 1.07812 9.39845 0.75 9.39845C0.295312 9.39845 0.0234375 9.67032 0.0234375 10.1203V10.3922L0.84375 11.6203C1.29375 12.3 1.72031 12.9 1.79062 12.9656C1.95 13.0969 2.18437 13.1484 2.42812 13.1016C2.57812 13.0734 2.76094 12.9141 3.7125 11.9625C4.90781 10.7625 4.93125 10.7344 4.85156 10.3266C4.80937 10.0969 4.52812 9.81563 4.29844 9.77345C3.975 9.71251 3.80625 9.77813 3.45937 10.1109C3.26719 10.2984 3.14062 10.3922 3.14062 10.35C3.14062 10.1859 3.46875 8.99532 3.63281 8.5547C5.08594 4.66407 8.97187 2.09063 13.125 2.26407C18.0187 2.47501 21.9094 6.13126 22.4531 11.0391C22.5937 12.3047 22.4203 13.7953 21.9891 15.0938C20.7703 18.7359 17.5453 21.3047 13.6922 21.6984C10.425 22.0359 7.34062 20.7516 5.32031 18.2109C5.08125 17.9156 4.90312 17.7328 4.8 17.6906C4.23281 17.4563 3.65625 17.9297 3.76875 18.5344C3.82969 18.8484 4.76719 19.9453 5.55469 20.625C6.68437 21.5906 7.88906 22.275 9.24844 22.7109C10.3078 23.0578 11.1 23.1938 12.2578 23.2359C14.7703 23.325 17.0953 22.6594 19.1109 21.2719C20.8594 20.0719 22.2422 18.3938 23.0578 16.4906C24.1781 13.8797 24.3 11.1141 23.4094 8.44219C21.9937 4.19532 18.2297 1.21407 13.7578 0.796883C13.275 0.754696 12.3 0.745319 11.8828 0.78282Z" fill="black"/>
<path d="M12.0703 4.94062C11.8969 5.02031 11.7422 5.18437 11.6766 5.35781C11.6391 5.44687 11.625 6.62812 11.625 9C11.625 12.0984 11.6344 12.5344 11.7 12.6984C11.7656 12.8625 12.0469 13.0875 14.1703 14.6812L16.5609 16.4766H16.8328C17.1375 16.4766 17.2922 16.3922 17.475 16.125C17.6063 15.9281 17.6156 15.6 17.4844 15.3891C17.3813 15.2156 17.4609 15.2812 15 13.4156L13.1484 12.0141L13.125 8.68125C13.1016 5.40937 13.1016 5.34844 13.0031 5.22187C12.9516 5.15156 12.8531 5.04844 12.7875 5.00156C12.6281 4.88437 12.2578 4.85156 12.0703 4.94062Z" fill="black"/>
</svg>
